M48
; DRILL file {KiCad 9.0.1} date 2026-02-28T21:35:27+0700
; FORMAT={-:-/ absolute / metric / decimal}
; #@! TF.CreationDate,2026-02-28T21:35:27+07:00
; #@! TF.GenerationSoftware,Kicad,Pcbnew,9.0.1
; #@! TF.FileFunction,MixedPlating,1,2
FMAT,2
METRIC
; #@! TA.AperFunction,Plated,PTH,ViaDrill
T1C0.300
; #@! TA.AperFunction,Plated,PTH,ComponentDrill
T2C0.500
; #@! TA.AperFunction,Plated,PTH,ComponentDrill
T3C0.600
; #@! TA.AperFunction,Plated,PTH,ComponentDrill
T4C0.800
; #@! TA.AperFunction,Plated,PTH,ComponentDrill
T5C0.810
; #@! TA.AperFunction,Plated,PTH,ComponentDrill
T6C0.900
; #@! TA.AperFunction,Plated,PTH,ComponentDrill
T7C1.000
; #@! TA.AperFunction,Plated,PTH,ComponentDrill
T8C1.013
; #@! TA.AperFunction,Plated,PTH,ComponentDrill
T9C1.200
; #@! TA.AperFunction,Plated,PTH,ComponentDrill
T10C1.300
; #@! TA.AperFunction,Plated,PTH,ComponentDrill
T11C1.400
; #@! TA.AperFunction,Plated,PTH,ComponentDrill
T12C2.000
; #@! TA.AperFunction,Plated,PTH,ComponentDrill
T13C3.200
%
G90
G05
T1
X56.012Y-33.539
X56.012Y-36.079
X56.012Y-38.619
X56.012Y-41.159
X56.012Y-43.699
X56.012Y-46.239
X56.012Y-48.779
X56.012Y-51.319
X56.012Y-53.859
X56.012Y-56.399
X56.012Y-58.939
X56.012Y-61.479
X56.012Y-64.019
X56.012Y-66.559
X56.012Y-69.099
X56.012Y-71.639
X56.012Y-74.179
X56.012Y-76.719
X56.012Y-79.259
X56.012Y-81.799
X56.012Y-84.339
X56.012Y-86.879
X56.012Y-89.419
X56.012Y-91.959
X56.012Y-94.499
X56.012Y-97.039
X56.012Y-99.579
X56.012Y-102.119
X56.012Y-104.659
X56.012Y-107.199
X56.012Y-109.739
X56.012Y-112.279
X56.012Y-114.819
X58.552Y-33.539
X58.552Y-36.079
X58.552Y-38.619
X58.552Y-41.159
X58.552Y-43.699
X58.552Y-46.239
X58.552Y-48.779
X58.552Y-51.319
X58.552Y-53.859
X58.552Y-56.399
X58.552Y-58.939
X58.552Y-61.479
X58.552Y-64.019
X58.552Y-66.559
X58.552Y-69.099
X58.552Y-71.639
X58.552Y-74.179
X58.552Y-76.719
X58.552Y-79.259
X58.552Y-81.799
X58.552Y-84.339
X58.552Y-86.879
X58.552Y-89.419
X58.552Y-91.959
X58.552Y-94.499
X58.552Y-97.039
X58.552Y-99.579
X58.552Y-102.119
X58.552Y-104.659
X58.552Y-107.199
X58.552Y-109.739
X58.552Y-112.279
X61.092Y-30.999
X61.092Y-33.539
X61.092Y-36.079
X61.092Y-38.619
X61.092Y-41.159
X61.092Y-43.699
X61.092Y-46.239
X61.092Y-48.779
X61.092Y-51.319
X61.092Y-53.859
X61.092Y-56.399
X61.092Y-58.939
X61.092Y-61.479
X61.092Y-64.019
X61.092Y-66.559
X61.092Y-69.099
X61.092Y-71.639
X61.092Y-74.179
X61.092Y-76.719
X61.092Y-79.259
X61.092Y-81.799
X61.092Y-84.339
X61.092Y-86.879
X61.092Y-89.419
X61.092Y-91.959
X61.092Y-94.499
X61.092Y-97.039
X61.092Y-99.579
X61.092Y-102.119
X61.092Y-104.659
X61.092Y-107.199
X61.092Y-109.739
X61.092Y-112.279
X61.092Y-114.819
X63.632Y-25.919
X63.632Y-28.459
X63.632Y-30.999
X63.632Y-33.539
X63.632Y-36.079
X63.632Y-38.619
X63.632Y-41.159
X63.632Y-43.699
X63.632Y-46.239
X63.632Y-48.779
X63.632Y-51.319
X63.632Y-53.859
X63.632Y-56.399
X63.632Y-58.939
X63.632Y-61.479
X63.632Y-64.019
X63.632Y-66.559
X63.632Y-69.099
X63.632Y-71.639
X63.632Y-74.179
X63.632Y-76.719
X63.632Y-107.199
X63.632Y-109.739
X63.632Y-112.279
X63.632Y-114.819
X63.632Y-117.359
X63.632Y-119.899
X66.172Y-25.919
X66.172Y-51.319
X66.172Y-53.859
X66.172Y-56.399
X66.172Y-58.939
X66.172Y-61.479
X66.172Y-64.019
X66.172Y-66.559
X66.172Y-79.259
X66.172Y-81.799
X66.172Y-84.339
X66.172Y-86.879
X66.172Y-89.419
X66.172Y-91.959
X66.172Y-94.499
X66.172Y-97.039
X66.172Y-99.579
X66.172Y-102.119
X66.172Y-109.739
X66.172Y-112.279
X66.172Y-114.819
X66.172Y-117.359
X66.172Y-119.899
X68.712Y-53.859
X68.712Y-56.399
X68.712Y-58.939
X68.712Y-61.479
X68.712Y-64.019
X68.712Y-66.559
X68.712Y-79.259
X68.712Y-81.799
X68.712Y-84.339
X68.712Y-86.879
X68.712Y-89.419
X68.712Y-91.959
X68.712Y-94.499
X68.712Y-97.039
X68.712Y-99.579
X68.712Y-102.119
X68.712Y-104.659
X68.712Y-112.279
X68.712Y-114.819
X68.712Y-117.359
X68.712Y-119.899
X71.252Y-41.159
X71.252Y-43.699
X71.252Y-56.399
X71.252Y-79.259
X71.252Y-81.799
X71.252Y-84.339
X71.252Y-86.879
X71.252Y-89.419
X71.252Y-91.959
X71.252Y-94.499
X71.252Y-97.039
X71.252Y-99.579
X71.252Y-102.119
X71.252Y-104.659
X71.252Y-107.199
X71.252Y-112.279
X71.252Y-114.819
X71.252Y-117.359
X71.252Y-119.899
X71.32Y-76.44
X71.32Y-77.22
X72.075Y-76.44
X72.075Y-77.22
X72.83Y-76.44
X72.83Y-77.22
X73.13Y-58.939
X73.621Y-61.601
X73.792Y-25.919
X73.792Y-43.699
X73.792Y-46.239
X73.792Y-64.019
X73.792Y-66.559
X73.792Y-79.259
X73.792Y-81.799
X73.792Y-84.339
X73.792Y-86.879
X73.792Y-89.419
X73.792Y-91.959
X73.792Y-94.499
X73.792Y-97.039
X73.792Y-99.579
X73.792Y-102.119
X73.792Y-104.659
X73.792Y-107.199
X73.792Y-112.279
X73.792Y-114.819
X73.792Y-117.359
X73.792Y-119.899
X74.565Y-109.285
X75.305Y-109.275
X76.332Y-46.239
X76.332Y-48.779
X76.332Y-66.559
X76.332Y-79.259
X76.332Y-81.799
X76.332Y-84.339
X76.332Y-86.879
X76.332Y-89.419
X76.332Y-91.959
X76.332Y-94.499
X76.332Y-97.039
X76.332Y-99.579
X76.332Y-102.119
X76.332Y-104.659
X76.332Y-107.199
X76.332Y-112.279
X76.332Y-114.819
X76.332Y-117.359
X76.332Y-119.899
X78.872Y-30.999
X78.872Y-48.779
X78.872Y-51.319
X78.872Y-79.259
X78.872Y-81.799
X78.872Y-84.339
X78.872Y-86.879
X78.872Y-89.419
X78.872Y-91.959
X78.872Y-94.499
X78.872Y-97.039
X78.872Y-99.579
X78.872Y-102.119
X78.872Y-104.659
X78.872Y-117.359
X78.872Y-119.899
X81.412Y-30.999
X81.412Y-33.539
X81.412Y-41.159
X81.412Y-48.779
X81.412Y-51.319
X81.412Y-53.859
X81.412Y-56.399
X81.412Y-64.019
X81.412Y-66.559
X81.412Y-79.259
X81.412Y-81.799
X81.412Y-84.339
X81.412Y-86.879
X81.412Y-89.419
X81.412Y-91.959
X81.412Y-94.499
X81.412Y-97.039
X81.412Y-99.579
X81.412Y-102.119
X83.952Y-25.919
X83.952Y-30.999
X83.952Y-33.539
X83.952Y-41.159
X83.952Y-48.779
X83.952Y-51.319
X83.952Y-53.859
X83.952Y-61.479
X83.952Y-64.019
X83.952Y-66.559
X83.952Y-69.099
X83.952Y-79.259
X83.952Y-81.799
X83.952Y-84.339
X83.952Y-86.879
X83.952Y-89.419
X83.952Y-91.959
X83.952Y-94.499
X83.952Y-97.039
X83.952Y-99.579
X83.952Y-102.119
X83.952Y-107.199
X83.952Y-112.279
X84.43Y-74.11
X85.17Y-74.1
X86.492Y-25.919
X86.492Y-30.999
X86.492Y-33.539
X86.492Y-41.159
X86.492Y-48.779
X86.492Y-51.319
X86.492Y-58.939
X86.492Y-61.479
X86.492Y-64.019
X86.492Y-66.559
X86.492Y-69.099
X86.492Y-79.259
X86.492Y-81.799
X86.492Y-84.339
X86.492Y-86.879
X86.492Y-89.419
X86.492Y-91.959
X86.492Y-94.499
X86.492Y-97.039
X86.492Y-99.579
X86.492Y-102.119
X89.032Y-33.539
X89.032Y-36.079
X89.032Y-38.619
X89.032Y-41.159
X89.032Y-43.699
X89.032Y-46.239
X89.032Y-48.779
X89.032Y-56.399
X89.032Y-58.939
X89.032Y-61.479
X89.032Y-64.019
X89.032Y-66.559
X89.032Y-69.099
X89.032Y-79.259
X89.032Y-81.799
X89.032Y-84.339
X89.032Y-86.879
X89.032Y-89.419
X89.032Y-91.959
X89.032Y-94.499
X89.032Y-97.039
X89.032Y-99.579
X89.032Y-102.119
X89.032Y-114.819
X89.032Y-117.359
X89.032Y-119.899
X91.465Y-108.985
X91.572Y-25.919
X91.572Y-28.459
X91.572Y-53.859
X91.572Y-56.399
X91.572Y-58.939
X91.572Y-61.479
X91.572Y-64.019
X91.572Y-66.559
X91.572Y-69.099
X91.572Y-79.259
X91.572Y-81.799
X91.572Y-84.339
X91.572Y-86.879
X91.572Y-89.419
X91.572Y-91.959
X91.572Y-94.499
X91.572Y-97.039
X91.572Y-99.579
X91.572Y-102.119
X91.572Y-107.199
X91.572Y-112.279
X91.572Y-114.819
X91.572Y-117.359
X91.572Y-119.899
X92.205Y-108.975
X94.112Y-25.919
X94.112Y-28.459
X94.112Y-30.999
X94.112Y-33.539
X94.112Y-36.079
X94.112Y-38.619
X94.112Y-41.159
X94.112Y-43.699
X94.112Y-46.239
X94.112Y-48.779
X94.112Y-51.319
X94.112Y-53.859
X94.112Y-56.399
X94.112Y-58.939
X94.112Y-61.479
X94.112Y-64.019
X94.112Y-66.559
X94.112Y-69.099
X94.112Y-71.639
X94.112Y-79.259
X94.112Y-81.799
X94.112Y-84.339
X94.112Y-86.879
X94.112Y-89.419
X94.112Y-91.959
X94.112Y-94.499
X94.112Y-97.039
X94.112Y-99.579
X94.112Y-102.119
X94.112Y-112.279
X94.112Y-114.819
X94.112Y-117.359
X94.112Y-119.899
X96.652Y-25.919
X96.652Y-28.459
X96.652Y-30.999
X96.652Y-33.539
X96.652Y-36.079
X96.652Y-38.619
X96.652Y-41.159
X96.652Y-43.699
X96.652Y-46.239
X96.652Y-48.779
X96.652Y-51.319
X96.652Y-53.859
X96.652Y-56.399
X96.652Y-58.939
X96.652Y-61.479
X96.652Y-64.019
X96.652Y-66.559
X96.652Y-69.099
X96.652Y-71.639
X96.652Y-81.799
X96.652Y-84.339
X96.652Y-86.879
X96.652Y-89.419
X96.652Y-91.959
X96.652Y-94.499
X96.652Y-97.039
X96.652Y-99.579
X96.652Y-102.119
X99.192Y-25.919
X99.192Y-51.319
X99.192Y-53.859
X99.192Y-56.399
X99.192Y-58.939
X99.192Y-61.479
X99.192Y-64.019
X99.192Y-66.559
X99.192Y-81.799
X99.192Y-84.339
X99.192Y-86.879
X99.192Y-89.419
X99.192Y-91.959
X99.192Y-94.499
X99.192Y-97.039
X99.192Y-99.579
X99.192Y-102.119
X99.192Y-107.199
X101.732Y-53.859
X101.732Y-56.399
X101.732Y-58.939
X101.732Y-61.479
X101.732Y-64.019
X101.732Y-66.559
X101.732Y-81.799
X101.732Y-84.339
X101.732Y-86.879
X101.732Y-89.419
X101.732Y-91.959
X101.732Y-94.499
X101.732Y-97.039
X101.732Y-99.579
X101.732Y-102.119
X101.732Y-107.199
X101.732Y-112.279
X104.18Y-76.27
X104.18Y-77.05
X104.272Y-43.699
X104.272Y-56.399
X104.272Y-81.799
X104.272Y-84.339
X104.272Y-86.879
X104.272Y-89.419
X104.272Y-91.959
X104.272Y-94.499
X104.272Y-97.039
X104.272Y-99.579
X104.272Y-102.119
X104.272Y-117.359
X104.272Y-119.899
X104.935Y-76.27
X104.935Y-77.05
X105.69Y-76.27
X105.69Y-77.05
X106.812Y-25.919
X106.812Y-46.239
X106.812Y-58.939
X106.812Y-61.479
X106.812Y-64.019
X106.812Y-66.559
X106.812Y-81.799
X106.812Y-84.339
X106.812Y-86.879
X106.812Y-89.419
X106.812Y-91.959
X106.812Y-94.499
X106.812Y-97.039
X106.812Y-99.579
X106.812Y-102.119
X106.812Y-107.199
X106.812Y-112.279
X106.812Y-114.819
X106.812Y-117.359
X106.812Y-119.899
X108.572Y-108.938
X109.312Y-108.927
X109.352Y-48.779
X109.352Y-66.559
X109.352Y-81.799
X109.352Y-84.339
X109.352Y-86.879
X109.352Y-89.419
X109.352Y-91.959
X109.352Y-94.499
X109.352Y-97.039
X109.352Y-99.579
X109.352Y-102.119
X109.352Y-107.199
X109.352Y-112.279
X109.352Y-114.819
X109.352Y-117.359
X109.352Y-119.899
X111.892Y-30.999
X111.892Y-48.779
X111.892Y-51.319
X111.892Y-81.799
X111.892Y-84.339
X111.892Y-86.879
X111.892Y-89.419
X111.892Y-91.959
X111.892Y-94.499
X111.892Y-97.039
X111.892Y-99.579
X111.892Y-102.119
X111.892Y-112.279
X111.892Y-114.819
X111.892Y-117.359
X111.892Y-119.899
X114.432Y-30.999
X114.432Y-33.539
X114.432Y-41.159
X114.432Y-48.779
X114.432Y-51.319
X114.432Y-53.859
X114.432Y-56.399
X114.432Y-64.019
X114.432Y-66.559
X114.432Y-81.799
X114.432Y-84.339
X114.432Y-86.879
X114.432Y-89.419
X114.432Y-91.959
X114.432Y-94.499
X114.432Y-97.039
X114.432Y-99.579
X114.432Y-102.119
X116.972Y-25.919
X116.972Y-30.999
X116.972Y-33.539
X116.972Y-41.159
X116.972Y-48.779
X116.972Y-51.319
X116.972Y-53.859
X116.972Y-61.479
X116.972Y-64.019
X116.972Y-66.559
X116.972Y-69.099
X116.972Y-81.799
X116.972Y-84.339
X116.972Y-86.879
X116.972Y-89.419
X116.972Y-91.959
X116.972Y-94.499
X116.972Y-97.039
X116.972Y-99.579
X116.972Y-102.119
X116.972Y-107.199
X116.972Y-112.279
X116.972Y-117.359
X116.972Y-119.899
X117.215Y-74.075
X117.955Y-74.065
X119.512Y-30.999
X119.512Y-33.539
X119.512Y-41.159
X119.512Y-48.779
X119.512Y-51.319
X119.512Y-58.939
X119.512Y-61.479
X119.512Y-64.019
X119.512Y-66.559
X119.512Y-69.099
X119.512Y-71.639
X119.512Y-81.799
X119.512Y-84.339
X119.512Y-86.879
X119.512Y-89.419
X119.512Y-91.959
X119.512Y-94.499
X119.512Y-97.039
X119.512Y-99.579
X119.512Y-102.119
X119.512Y-107.199
X119.512Y-112.279
X122.052Y-33.539
X122.052Y-36.079
X122.052Y-38.619
X122.052Y-41.159
X122.052Y-43.699
X122.052Y-46.239
X122.052Y-48.779
X122.052Y-56.399
X122.052Y-58.939
X122.052Y-61.479
X122.052Y-64.019
X122.052Y-66.559
X122.052Y-69.099
X122.052Y-71.639
X122.052Y-81.799
X122.052Y-84.339
X122.052Y-86.879
X122.052Y-89.419
X122.052Y-91.959
X122.052Y-94.499
X122.052Y-97.039
X122.052Y-99.579
X122.052Y-102.119
X122.052Y-117.359
X122.052Y-119.899
X124.592Y-25.919
X124.592Y-28.459
X124.592Y-53.859
X124.592Y-56.399
X124.592Y-58.939
X124.592Y-61.479
X124.592Y-64.019
X124.592Y-66.559
X124.592Y-69.099
X124.592Y-71.639
X124.592Y-81.799
X124.592Y-84.339
X124.592Y-86.879
X124.592Y-89.419
X124.592Y-91.959
X124.592Y-94.499
X124.592Y-97.039
X124.592Y-99.579
X124.592Y-102.119
X124.592Y-107.199
X124.592Y-112.279
X124.592Y-114.819
X124.592Y-117.359
X124.592Y-119.899
X125.642Y-109.347
X126.382Y-109.337
X127.132Y-25.919
X127.132Y-28.459
X127.132Y-30.999
X127.132Y-33.539
X127.132Y-36.079
X127.132Y-38.619
X127.132Y-41.159
X127.132Y-43.699
X127.132Y-46.239
X127.132Y-48.779
X127.132Y-51.319
X127.132Y-53.859
X127.132Y-56.399
X127.132Y-58.939
X127.132Y-61.479
X127.132Y-64.019
X127.132Y-66.559
X127.132Y-69.099
X127.132Y-71.639
X127.132Y-81.799
X127.132Y-84.339
X127.132Y-86.879
X127.132Y-89.419
X127.132Y-91.959
X127.132Y-94.499
X127.132Y-97.039
X127.132Y-99.579
X127.132Y-102.119
X127.132Y-107.199
X127.132Y-112.279
X127.132Y-114.819
X127.132Y-117.359
X127.132Y-119.899
X129.672Y-25.919
X129.672Y-28.459
X129.672Y-30.999
X129.672Y-33.539
X129.672Y-36.079
X129.672Y-38.619
X129.672Y-41.159
X129.672Y-43.699
X129.672Y-46.239
X129.672Y-48.779
X129.672Y-51.319
X129.672Y-53.859
X129.672Y-56.399
X129.672Y-58.939
X129.672Y-61.479
X129.672Y-64.019
X129.672Y-66.559
X129.672Y-69.099
X129.672Y-71.639
X129.672Y-81.799
X129.672Y-84.339
X129.672Y-86.879
X129.672Y-89.419
X129.672Y-91.959
X129.672Y-94.499
X129.672Y-97.039
X129.672Y-99.579
X129.672Y-102.119
X129.672Y-117.359
X129.672Y-119.899
X132.212Y-25.919
X132.212Y-51.319
X132.212Y-53.859
X132.212Y-56.399
X132.212Y-58.939
X132.212Y-61.479
X132.212Y-64.019
X132.212Y-66.559
X132.212Y-81.799
X132.212Y-84.339
X132.212Y-86.879
X132.212Y-89.419
X132.212Y-91.959
X132.212Y-94.499
X132.212Y-97.039
X132.212Y-99.579
X132.212Y-102.119
X134.752Y-53.859
X134.752Y-56.399
X134.752Y-58.939
X134.752Y-61.479
X134.752Y-64.019
X134.752Y-66.559
X134.752Y-81.799
X134.752Y-84.339
X134.752Y-86.879
X134.752Y-89.419
X134.752Y-91.959
X134.752Y-94.499
X134.752Y-97.039
X134.752Y-99.579
X134.752Y-102.119
X134.752Y-107.199
X134.752Y-112.279
X136.77Y-76.41
X136.77Y-77.19
X137.292Y-43.699
X137.292Y-56.399
X137.292Y-81.799
X137.292Y-84.339
X137.292Y-86.879
X137.292Y-89.419
X137.292Y-91.959
X137.292Y-94.499
X137.292Y-97.039
X137.292Y-99.579
X137.292Y-102.119
X137.292Y-117.359
X137.292Y-119.899
X137.525Y-76.41
X137.525Y-77.19
X138.28Y-76.41
X138.28Y-77.19
X139.832Y-46.239
X139.832Y-58.939
X139.832Y-61.479
X139.832Y-64.019
X139.832Y-66.559
X139.832Y-81.799
X139.832Y-84.339
X139.832Y-86.879
X139.832Y-89.419
X139.832Y-91.959
X139.832Y-94.499
X139.832Y-97.039
X139.832Y-99.579
X139.832Y-102.119
X139.832Y-114.819
X139.832Y-117.359
X139.832Y-119.899
X142.215Y-109.287
X142.372Y-48.779
X142.372Y-66.559
X142.372Y-81.799
X142.372Y-84.339
X142.372Y-86.879
X142.372Y-89.419
X142.372Y-91.959
X142.372Y-94.499
X142.372Y-97.039
X142.372Y-99.579
X142.372Y-102.119
X142.372Y-107.199
X142.372Y-112.279
X142.372Y-114.819
X142.372Y-117.359
X142.372Y-119.899
X142.955Y-109.277
X144.912Y-30.999
X144.912Y-41.159
X144.912Y-48.779
X144.912Y-51.319
X144.912Y-53.859
X144.912Y-56.399
X144.912Y-58.939
X144.912Y-81.799
X144.912Y-84.339
X144.912Y-86.879
X144.912Y-89.419
X144.912Y-91.959
X144.912Y-94.499
X144.912Y-97.039
X144.912Y-99.579
X144.912Y-102.119
X144.912Y-114.819
X144.912Y-117.359
X144.912Y-119.899
X147.452Y-30.999
X147.452Y-33.539
X147.452Y-41.159
X147.452Y-48.779
X147.452Y-51.319
X147.452Y-53.859
X147.452Y-56.399
X147.452Y-64.019
X147.452Y-66.559
X147.452Y-81.799
X147.452Y-84.339
X147.452Y-86.879
X147.452Y-89.419
X147.452Y-91.959
X147.452Y-94.499
X147.452Y-97.039
X147.452Y-99.579
X147.452Y-102.119
X149.895Y-74.155
X149.992Y-25.919
X149.992Y-30.999
X149.992Y-33.539
X149.992Y-41.159
X149.992Y-48.779
X149.992Y-51.319
X149.992Y-53.859
X149.992Y-61.479
X149.992Y-64.019
X149.992Y-66.559
X149.992Y-69.099
X149.992Y-81.799
X149.992Y-84.339
X149.992Y-86.879
X149.992Y-89.419
X149.992Y-91.959
X149.992Y-94.499
X149.992Y-97.039
X149.992Y-99.579
X149.992Y-102.119
X150.635Y-74.145
X152.532Y-30.999
X152.532Y-33.539
X152.532Y-41.159
X152.532Y-48.779
X152.532Y-51.319
X152.532Y-58.939
X152.532Y-61.479
X152.532Y-64.019
X152.532Y-66.559
X152.532Y-69.099
X152.532Y-71.639
X152.532Y-81.799
X152.532Y-84.339
X152.532Y-86.879
X152.532Y-89.419
X152.532Y-91.959
X152.532Y-94.499
X152.532Y-97.039
X152.532Y-99.579
X152.532Y-102.119
X152.532Y-112.279
X155.072Y-33.539
X155.072Y-36.079
X155.072Y-38.619
X155.072Y-41.159
X155.072Y-43.699
X155.072Y-46.239
X155.072Y-48.779
X155.072Y-56.399
X155.072Y-58.939
X155.072Y-61.479
X155.072Y-64.019
X155.072Y-66.559
X155.072Y-69.099
X155.072Y-71.639
X155.072Y-81.799
X155.072Y-84.339
X155.072Y-86.879
X155.072Y-89.419
X155.072Y-91.959
X155.072Y-94.499
X155.072Y-97.039
X155.072Y-99.579
X155.072Y-102.119
X155.072Y-119.899
X157.612Y-25.919
X157.612Y-28.459
X157.612Y-30.999
X157.612Y-33.539
X157.612Y-36.079
X157.612Y-38.619
X157.612Y-41.159
X157.612Y-43.699
X157.612Y-46.239
X157.612Y-48.779
X157.612Y-51.319
X157.612Y-53.859
X157.612Y-56.399
X157.612Y-58.939
X157.612Y-61.479
X157.612Y-64.019
X157.612Y-66.559
X157.612Y-69.099
X157.612Y-71.639
X157.612Y-81.799
X157.612Y-84.339
X157.612Y-86.879
X157.612Y-89.419
X157.612Y-91.959
X157.612Y-94.499
X157.612Y-97.039
X157.612Y-99.579
X157.612Y-102.119
X157.612Y-112.279
X157.612Y-114.819
X157.612Y-117.359
X157.612Y-119.899
X158.892Y-109.377
X159.632Y-109.367
X160.152Y-25.919
X160.152Y-28.459
X160.152Y-30.999
X160.152Y-33.539
X160.152Y-36.079
X160.152Y-38.619
X160.152Y-41.159
X160.152Y-43.699
X160.152Y-46.239
X160.152Y-48.779
X160.152Y-51.319
X160.152Y-53.859
X160.152Y-56.399
X160.152Y-58.939
X160.152Y-61.479
X160.152Y-64.019
X160.152Y-66.559
X160.152Y-69.099
X160.152Y-71.639
X160.152Y-81.799
X160.152Y-84.339
X160.152Y-86.879
X160.152Y-89.419
X160.152Y-91.959
X160.152Y-94.499
X160.152Y-97.039
X160.152Y-99.579
X160.152Y-102.119
X160.152Y-112.279
X160.152Y-114.819
X160.152Y-117.359
X160.152Y-119.899
X162.692Y-25.919
X162.692Y-28.459
X162.692Y-30.999
X162.692Y-33.539
X162.692Y-36.079
X162.692Y-38.619
X162.692Y-41.159
X162.692Y-43.699
X162.692Y-46.239
X162.692Y-48.779
X162.692Y-51.319
X162.692Y-53.859
X162.692Y-56.399
X162.692Y-58.939
X162.692Y-61.479
X162.692Y-64.019
X162.692Y-66.559
X162.692Y-81.799
X162.692Y-84.339
X162.692Y-86.879
X162.692Y-89.419
X162.692Y-91.959
X162.692Y-94.499
X162.692Y-97.039
X162.692Y-99.579
X162.692Y-102.119
X162.692Y-117.359
X162.692Y-119.899
X165.232Y-25.919
X165.232Y-51.319
X165.232Y-53.859
X165.232Y-56.399
X165.232Y-58.939
X165.232Y-61.479
X165.232Y-64.019
X165.232Y-66.559
X165.232Y-81.799
X165.232Y-84.339
X165.232Y-86.879
X165.232Y-89.419
X165.232Y-91.959
X165.232Y-94.499
X165.232Y-97.039
X165.232Y-99.579
X165.232Y-102.119
X167.772Y-53.859
X167.772Y-56.399
X167.772Y-58.939
X167.772Y-81.799
X167.772Y-84.339
X167.772Y-86.879
X167.772Y-89.419
X167.772Y-91.959
X167.772Y-94.499
X167.772Y-97.039
X167.772Y-99.579
X167.772Y-102.119
X167.772Y-107.199
X167.772Y-112.279
X167.772Y-117.359
X169.5Y-76.13
X169.5Y-76.91
X170.255Y-76.13
X170.255Y-76.91
X170.312Y-46.239
X170.312Y-56.399
X170.312Y-64.019
X170.312Y-66.559
X170.312Y-81.799
X170.312Y-84.339
X170.312Y-86.879
X170.312Y-89.419
X170.312Y-91.959
X170.312Y-94.499
X170.312Y-97.039
X170.312Y-99.579
X170.312Y-102.119
X171.01Y-76.13
X171.01Y-76.91
X172.852Y-48.779
X172.852Y-58.939
X172.852Y-61.479
X172.852Y-64.019
X172.852Y-66.559
X172.852Y-81.799
X172.852Y-84.339
X172.852Y-86.879
X172.852Y-89.419
X172.852Y-91.959
X172.852Y-94.499
X172.852Y-97.039
X172.852Y-99.579
X172.852Y-102.119
X172.852Y-117.359
X172.852Y-119.899
X175.392Y-48.779
X175.392Y-51.319
X175.392Y-66.559
X175.392Y-81.799
X175.392Y-84.339
X175.392Y-86.879
X175.392Y-89.419
X175.392Y-91.959
X175.392Y-94.499
X175.392Y-97.039
X175.392Y-99.579
X175.392Y-102.119
X175.392Y-107.199
X175.392Y-112.279
X175.392Y-114.819
X175.392Y-117.359
X175.392Y-119.899
X175.512Y-109.358
X176.252Y-109.347
X177.932Y-30.999
X177.932Y-41.159
X177.932Y-48.779
X177.932Y-51.319
X177.932Y-53.859
X177.932Y-56.399
X177.932Y-58.939
X177.932Y-81.799
X177.932Y-84.339
X177.932Y-86.879
X177.932Y-89.419
X177.932Y-91.959
X177.932Y-94.499
X177.932Y-97.039
X177.932Y-99.579
X177.932Y-102.119
X177.932Y-107.199
X177.932Y-112.279
X177.932Y-114.819
X177.932Y-117.359
X177.932Y-119.899
X180.472Y-30.999
X180.472Y-33.539
X180.472Y-41.159
X180.472Y-48.779
X180.472Y-51.319
X180.472Y-53.859
X180.472Y-56.399
X180.472Y-64.019
X180.472Y-66.559
X180.472Y-81.799
X180.472Y-84.339
X180.472Y-86.879
X180.472Y-89.419
X180.472Y-91.959
X180.472Y-94.499
X180.472Y-97.039
X180.472Y-99.579
X180.472Y-102.119
X180.472Y-117.359
X180.472Y-119.899
X182.605Y-73.845
X183.012Y-25.919
X183.012Y-28.459
X183.012Y-30.999
X183.012Y-33.539
X183.012Y-41.159
X183.012Y-48.779
X183.012Y-51.319
X183.012Y-53.859
X183.012Y-61.479
X183.012Y-64.019
X183.012Y-66.559
X183.012Y-69.099
X183.012Y-81.799
X183.012Y-84.339
X183.012Y-86.879
X183.012Y-89.419
X183.012Y-91.959
X183.012Y-94.499
X183.012Y-97.039
X183.012Y-99.579
X183.012Y-102.119
X183.345Y-73.835
X185.552Y-25.919
X185.552Y-28.459
X185.552Y-30.999
X185.552Y-33.539
X185.552Y-41.159
X185.552Y-48.779
X185.552Y-51.319
X185.552Y-58.939
X185.552Y-61.479
X185.552Y-64.019
X185.552Y-66.559
X185.552Y-69.099
X185.552Y-81.799
X185.552Y-84.339
X185.552Y-86.879
X185.552Y-89.419
X185.552Y-91.959
X185.552Y-94.499
X185.552Y-97.039
X185.552Y-99.579
X185.552Y-102.119
X185.552Y-107.199
X185.552Y-112.279
X188.092Y-33.539
X188.092Y-36.079
X188.092Y-38.619
X188.092Y-41.159
X188.092Y-43.699
X188.092Y-46.239
X188.092Y-48.779
X188.092Y-56.399
X188.092Y-58.939
X188.092Y-61.479
X188.092Y-64.019
X188.092Y-66.559
X188.092Y-69.099
X188.092Y-71.639
X188.092Y-81.799
X188.092Y-84.339
X188.092Y-86.879
X188.092Y-89.419
X188.092Y-91.959
X188.092Y-94.499
X188.092Y-97.039
X188.092Y-99.579
X188.092Y-102.119
X188.092Y-117.359
X188.092Y-119.899
X190.632Y-25.919
X190.632Y-28.459
X190.632Y-30.999
X190.632Y-33.539
X190.632Y-36.079
X190.632Y-38.619
X190.632Y-41.159
X190.632Y-43.699
X190.632Y-46.239
X190.632Y-48.779
X190.632Y-51.319
X190.632Y-53.859
X190.632Y-56.399
X190.632Y-58.939
X190.632Y-61.479
X190.632Y-64.019
X190.632Y-66.559
X190.632Y-69.099
X190.632Y-71.639
X190.632Y-81.799
X190.632Y-84.339
X190.632Y-86.879
X190.632Y-89.419
X190.632Y-91.959
X190.632Y-94.499
X190.632Y-97.039
X190.632Y-99.579
X190.632Y-102.119
X190.632Y-107.199
X190.632Y-112.279
X190.632Y-114.819
X190.632Y-117.359
X190.632Y-119.899
X192.183Y-109.387
X192.922Y-109.377
X193.172Y-25.919
X193.172Y-28.459
X193.172Y-30.999
X193.172Y-33.539
X193.172Y-36.079
X193.172Y-38.619
X193.172Y-41.159
X193.172Y-43.699
X193.172Y-46.239
X193.172Y-48.779
X193.172Y-51.319
X193.172Y-53.859
X193.172Y-56.399
X193.172Y-58.939
X193.172Y-61.479
X193.172Y-64.019
X193.172Y-66.559
X193.172Y-69.099
X193.172Y-71.639
X193.172Y-84.339
X193.172Y-86.879
X193.172Y-89.419
X193.172Y-91.959
X193.172Y-94.499
X193.172Y-97.039
X193.172Y-99.579
X193.172Y-102.119
X193.172Y-107.199
X193.172Y-112.279
X193.172Y-114.819
X193.172Y-117.359
X193.172Y-119.899
X195.712Y-25.919
X195.712Y-28.459
X195.712Y-30.999
X195.712Y-33.539
X195.712Y-36.079
X195.712Y-38.619
X195.712Y-41.159
X195.712Y-43.699
X195.712Y-46.239
X195.712Y-48.779
X195.712Y-51.319
X195.712Y-53.859
X195.712Y-56.399
X195.712Y-58.939
X195.712Y-61.479
X195.712Y-64.019
X195.712Y-66.559
X195.712Y-69.099
X195.712Y-79.259
X195.712Y-86.879
X195.712Y-89.419
X195.712Y-91.959
X195.712Y-94.499
X195.712Y-97.039
X195.712Y-99.579
X195.712Y-102.119
X195.712Y-117.359
X195.712Y-119.899
X198.252Y-51.319
X198.252Y-53.859
X198.252Y-56.399
X198.252Y-58.939
X198.252Y-61.479
X198.252Y-64.019
X198.252Y-66.559
X198.252Y-79.259
X198.252Y-81.799
X198.252Y-89.419
X198.252Y-91.959
X198.252Y-94.499
X198.252Y-97.039
X198.252Y-99.579
X198.252Y-102.119
X200.792Y-53.859
X200.792Y-56.399
X200.792Y-58.939
X200.792Y-79.259
X200.792Y-81.799
X200.792Y-84.339
X200.792Y-91.959
X200.792Y-94.499
X200.792Y-97.039
X200.792Y-99.579
X200.792Y-102.119
X200.792Y-112.279
X200.792Y-117.359
X200.792Y-119.899
X202.28Y-76.31
X202.28Y-77.09
X203.035Y-76.31
X203.035Y-77.09
X203.332Y-46.239
X203.332Y-56.399
X203.332Y-64.019
X203.332Y-66.559
X203.332Y-79.259
X203.332Y-81.799
X203.332Y-84.339
X203.332Y-86.879
X203.332Y-94.499
X203.332Y-97.039
X203.332Y-99.579
X203.332Y-102.119
X203.332Y-112.279
X203.79Y-76.31
X203.79Y-77.09
X205.872Y-48.779
X205.872Y-66.559
X205.872Y-79.259
X205.872Y-81.799
X205.872Y-84.339
X205.872Y-86.879
X205.872Y-89.419
X205.872Y-97.039
X205.872Y-99.579
X205.872Y-102.119
X205.872Y-117.359
X205.872Y-119.899
X208.412Y-48.779
X208.412Y-51.319
X208.412Y-66.559
X208.412Y-99.579
X208.412Y-102.119
X208.412Y-114.819
X208.412Y-117.359
X208.412Y-119.899
X210.952Y-30.999
X210.952Y-41.159
X210.952Y-48.779
X210.952Y-51.319
X210.952Y-53.859
X210.952Y-56.399
X210.952Y-58.939
X210.952Y-79.259
X210.952Y-86.879
X210.952Y-89.419
X210.952Y-91.959
X210.952Y-102.119
X210.952Y-117.359
X210.952Y-119.899
X213.492Y-25.919
X213.492Y-30.999
X213.492Y-33.539
X213.492Y-41.159
X213.492Y-48.779
X213.492Y-51.319
X213.492Y-53.859
X213.492Y-56.399
X213.492Y-64.019
X213.492Y-66.559
X213.492Y-104.659
X213.492Y-119.899
X215.435Y-73.205
X216.032Y-25.919
X216.032Y-30.999
X216.032Y-33.539
X216.032Y-41.159
X216.032Y-48.779
X216.032Y-51.319
X216.032Y-53.859
X216.032Y-61.479
X216.032Y-64.019
X216.032Y-66.559
X216.032Y-69.099
X216.032Y-71.639
X216.032Y-107.199
X216.175Y-73.195
X218.572Y-30.999
X218.572Y-33.539
X218.572Y-41.159
X218.572Y-48.779
X218.572Y-51.319
X218.572Y-58.939
X218.572Y-61.479
X218.572Y-64.019
X218.572Y-66.559
X218.572Y-69.099
X218.572Y-71.639
X218.572Y-81.799
X218.572Y-99.579
X218.572Y-107.199
X218.572Y-109.739
X221.112Y-33.539
X221.112Y-36.079
X221.112Y-38.619
X221.112Y-41.159
X221.112Y-43.699
X221.112Y-46.239
X221.112Y-48.779
X221.112Y-56.399
X221.112Y-58.939
X221.112Y-61.479
X221.112Y-64.019
X221.112Y-66.559
X221.112Y-69.099
X221.112Y-71.639
X221.112Y-81.799
X221.112Y-84.339
X221.112Y-86.879
X221.112Y-89.419
X221.112Y-94.499
X221.112Y-99.579
X221.112Y-107.199
X221.112Y-117.359
X222.11Y-110.14
X222.76Y-110.77
X223.652Y-25.919
X223.652Y-28.459
X223.652Y-30.999
X223.652Y-33.539
X223.652Y-36.079
X223.652Y-38.619
X223.652Y-41.159
X223.652Y-43.699
X223.652Y-46.239
X223.652Y-48.779
X223.652Y-51.319
X223.652Y-53.859
X223.652Y-56.399
X223.652Y-58.939
X223.652Y-61.479
X223.652Y-64.019
X223.652Y-66.559
X223.652Y-69.099
X223.652Y-71.639
X224.04Y-94.93
X224.51Y-109.94
X224.68Y-93.37
X224.81Y-94.94
X226.14Y-108.89
X226.15Y-108.12
X226.192Y-25.919
X226.192Y-28.459
X226.192Y-30.999
X226.192Y-33.539
X226.192Y-36.079
X226.192Y-38.619
X226.192Y-41.159
X226.192Y-43.699
X226.192Y-46.239
X226.192Y-48.779
X226.192Y-51.319
X226.192Y-53.859
X226.192Y-56.399
X226.192Y-58.939
X226.192Y-61.479
X226.192Y-64.019
X226.192Y-66.559
X226.192Y-69.099
X226.192Y-71.639
X226.192Y-81.799
X226.192Y-84.339
X226.192Y-86.879
X226.192Y-89.419
X227.0Y-114.4
X227.68Y-113.72
X228.732Y-25.919
X228.732Y-28.459
X228.732Y-30.999
X228.732Y-33.539
X228.732Y-36.079
X228.732Y-38.619
X228.732Y-41.159
X228.732Y-43.699
X228.732Y-46.239
X228.732Y-48.779
X228.732Y-51.319
X228.732Y-53.859
X228.732Y-56.399
X228.732Y-58.939
X228.732Y-61.479
X228.732Y-64.019
X228.732Y-66.559
X228.732Y-81.799
X228.732Y-84.339
X229.98Y-103.42
X230.01Y-102.16
X230.08Y-104.63
X230.08Y-105.99
X231.272Y-51.319
X231.272Y-53.859
X231.272Y-56.399
X231.272Y-58.939
X231.272Y-61.479
X231.272Y-64.019
X231.272Y-66.559
X231.272Y-81.799
X231.272Y-84.339
X231.272Y-86.879
X231.272Y-89.419
X231.272Y-102.119
X231.272Y-104.659
X231.3Y-103.41
X231.32Y-105.96
X232.6Y-105.89
X232.62Y-103.45
X232.63Y-104.73
X232.64Y-102.17
X233.812Y-53.859
X233.812Y-56.399
X233.812Y-58.939
X233.812Y-81.799
X233.812Y-84.339
X233.812Y-102.119
X233.812Y-104.659
X233.82Y-103.38
X233.84Y-105.94
X234.17Y-112.81
X234.94Y-76.22
X234.94Y-77.0
X235.03Y-103.47
X235.05Y-104.68
X235.08Y-102.13
X235.08Y-105.91
X235.695Y-76.22
X235.695Y-77.0
X236.352Y-46.239
X236.352Y-56.399
X236.352Y-64.019
X236.352Y-66.559
X236.352Y-81.799
X236.352Y-84.339
X236.352Y-86.879
X236.352Y-89.419
X236.352Y-91.959
X236.45Y-76.22
X236.45Y-77.0
X236.49Y-110.56
X237.26Y-110.57
X238.33Y-120.02
X238.863Y-106.87
X238.892Y-48.779
X238.892Y-66.559
X238.892Y-81.799
X238.892Y-84.339
X238.892Y-86.879
X239.58Y-98.76
X239.59Y-97.99
X241.18Y-113.73
X241.432Y-48.779
X241.432Y-51.319
X241.432Y-66.559
X241.432Y-81.799
X241.432Y-84.339
X241.432Y-86.879
X241.432Y-112.279
X241.432Y-117.359
X241.87Y-91.55
X242.22Y-105.04
X242.69Y-99.89
X243.972Y-30.999
X243.972Y-41.159
X243.972Y-48.779
X243.972Y-51.319
X243.972Y-53.859
X243.972Y-56.399
X243.972Y-58.939
X243.972Y-81.799
X243.972Y-84.339
X243.972Y-102.119
X243.972Y-112.279
X243.972Y-117.359
X243.972Y-119.899
X246.512Y-25.919
X246.512Y-30.999
X246.512Y-33.539
X246.512Y-41.159
X246.512Y-48.779
X246.512Y-51.319
X246.512Y-53.859
X246.512Y-56.399
X246.512Y-61.479
X246.512Y-64.019
X246.512Y-66.559
X246.512Y-69.099
X246.512Y-71.639
X246.512Y-81.799
X246.512Y-84.339
X246.512Y-97.039
X246.512Y-109.739
X246.512Y-117.359
X246.512Y-119.899
X246.62Y-113.8
X247.39Y-113.81
X248.055Y-73.195
X248.795Y-73.185
X249.052Y-25.919
X249.052Y-30.999
X249.052Y-33.539
X249.052Y-41.159
X249.052Y-48.779
X249.052Y-51.319
X249.052Y-53.859
X249.052Y-58.939
X249.052Y-61.479
X249.052Y-64.019
X249.052Y-66.559
X249.052Y-69.099
X249.052Y-71.639
X249.052Y-81.799
X249.052Y-84.339
X249.052Y-86.879
X249.052Y-89.419
X249.052Y-91.959
X249.052Y-94.499
X249.052Y-112.279
X249.052Y-117.359
X251.592Y-30.999
X251.592Y-33.539
X251.592Y-41.159
X251.592Y-48.779
X251.592Y-51.319
X251.592Y-56.399
X251.592Y-58.939
X251.592Y-61.479
X251.592Y-64.019
X251.592Y-66.559
X251.592Y-69.099
X251.592Y-71.639
X251.592Y-81.799
X251.592Y-84.339
X251.592Y-86.879
X251.592Y-89.419
X251.592Y-91.959
X251.592Y-99.579
X251.592Y-109.739
X251.592Y-117.359
X253.01Y-117.25
X254.132Y-53.859
X254.132Y-56.399
X254.132Y-58.939
X254.132Y-61.479
X254.132Y-64.019
X254.132Y-66.559
X254.132Y-69.099
X254.132Y-71.639
X254.132Y-81.799
X254.132Y-97.039
X254.132Y-99.579
X256.672Y-25.919
X256.672Y-28.459
X256.672Y-30.999
X256.672Y-33.539
X256.672Y-36.079
X256.672Y-38.619
X256.672Y-41.159
X256.672Y-43.699
X256.672Y-46.239
X256.672Y-48.779
X256.672Y-51.319
X256.672Y-53.859
X256.672Y-56.399
X256.672Y-58.939
X256.672Y-61.479
X256.672Y-64.019
X256.672Y-66.559
X256.672Y-69.099
X256.672Y-71.639
X256.672Y-86.879
X256.672Y-91.959
X256.672Y-94.499
X256.672Y-97.039
X256.672Y-104.659
X256.672Y-112.279
X258.2Y-35.32
X258.506Y-41.865
X258.721Y-43.771
X259.084Y-102.45
X259.212Y-25.919
X259.212Y-28.459
X259.212Y-30.999
X259.212Y-33.539
X259.212Y-46.239
X259.212Y-48.779
X259.212Y-51.319
X259.212Y-53.859
X259.212Y-56.399
X259.212Y-58.939
X259.212Y-61.479
X259.212Y-64.019
X259.212Y-66.559
X259.212Y-69.099
X259.212Y-71.639
X259.212Y-84.339
X259.212Y-86.879
X259.212Y-94.499
X259.212Y-104.659
X259.212Y-109.739
X259.212Y-112.279
X259.754Y-37.118
X259.811Y-45.64
X259.9Y-117.68
X260.646Y-34.645
X261.081Y-46.91
X261.747Y-30.934
X261.752Y-25.919
X261.752Y-28.459
X261.752Y-48.779
X261.752Y-51.319
X261.752Y-53.859
X261.752Y-56.399
X261.752Y-58.939
X261.752Y-61.479
X261.752Y-64.019
X261.752Y-66.559
X261.752Y-99.579
X261.752Y-107.199
X262.024Y-35.615
X263.29Y-104.659
X263.29Y-107.199
X263.861Y-101.53
X264.292Y-51.319
X264.292Y-53.859
X264.292Y-56.399
X264.292Y-58.939
X264.292Y-61.479
X264.292Y-64.019
X264.292Y-66.559
X264.292Y-99.579
X266.832Y-25.919
X266.832Y-53.859
X266.832Y-56.399
X266.832Y-99.579
X266.832Y-102.119
X266.832Y-104.659
X266.832Y-107.199
X267.61Y-76.26
X267.61Y-77.04
X268.365Y-76.26
X268.365Y-77.04
X269.12Y-76.26
X269.12Y-77.04
X269.372Y-43.699
X269.372Y-46.239
X269.372Y-56.399
X269.372Y-64.019
X269.372Y-66.559
X269.372Y-81.799
X269.372Y-84.339
X269.372Y-86.879
X269.372Y-89.419
X269.372Y-91.959
X269.372Y-102.119
X269.372Y-104.659
X269.372Y-107.199
X269.372Y-119.899
X271.912Y-46.239
X271.912Y-48.779
X271.912Y-66.559
X271.912Y-81.799
X271.912Y-84.339
X271.912Y-86.879
X271.912Y-89.419
X271.912Y-114.819
X274.452Y-48.779
X274.452Y-51.319
X274.452Y-66.559
X274.452Y-107.199
X274.452Y-109.739
X274.452Y-112.279
X274.452Y-114.819
X276.992Y-30.999
X276.992Y-48.779
X276.992Y-51.319
X276.992Y-53.859
X276.992Y-56.399
X276.992Y-58.939
X276.992Y-64.019
X276.992Y-66.559
X279.532Y-25.919
X279.532Y-30.999
X279.532Y-33.539
X279.532Y-41.159
X279.532Y-48.779
X279.532Y-51.319
X279.532Y-53.859
X279.532Y-56.399
X279.532Y-61.479
X279.532Y-64.019
X279.532Y-66.559
X279.532Y-69.099
X279.532Y-71.639
X279.532Y-91.959
X279.532Y-94.499
X280.48Y-80.41
X280.48Y-81.19
X280.645Y-73.245
X281.235Y-80.41
X281.235Y-81.19
X281.385Y-73.235
X281.88Y-108.59
X281.99Y-80.41
X281.99Y-81.19
X282.072Y-25.919
X282.072Y-30.999
X282.072Y-33.539
X282.072Y-41.159
X282.072Y-48.779
X282.072Y-51.319
X282.072Y-53.859
X282.072Y-58.939
X282.072Y-61.479
X282.072Y-64.019
X282.072Y-66.559
X282.072Y-69.099
X282.072Y-71.639
X284.612Y-30.999
X284.612Y-33.539
X284.612Y-41.159
X284.612Y-48.779
X284.612Y-51.319
X284.612Y-56.399
X284.612Y-58.939
X284.612Y-61.479
X284.612Y-64.019
X284.612Y-66.559
X284.612Y-69.099
X284.612Y-71.639
X287.152Y-53.859
X287.152Y-56.399
X287.152Y-58.939
X287.152Y-61.479
X287.152Y-64.019
X287.152Y-66.559
X287.152Y-69.099
X287.152Y-71.639
X287.152Y-89.419
X289.692Y-25.919
X289.692Y-28.459
X289.692Y-30.999
X289.692Y-33.539
X289.692Y-36.079
X289.692Y-38.619
X289.692Y-41.159
X289.692Y-43.699
X289.692Y-46.239
X289.692Y-48.779
X289.692Y-51.319
X289.692Y-53.859
X289.692Y-56.399
X289.692Y-58.939
X289.692Y-61.479
X289.692Y-64.019
X289.692Y-66.559
X289.692Y-69.099
X289.692Y-71.639
X289.692Y-81.799
X289.692Y-84.339
X289.692Y-86.879
X292.21Y-108.55
X292.232Y-25.919
X292.232Y-28.459
X292.232Y-30.999
X292.232Y-33.539
X292.232Y-36.079
X292.232Y-38.619
X292.232Y-41.159
X292.232Y-43.699
X292.232Y-46.239
X292.232Y-48.779
X292.232Y-51.319
X292.232Y-53.859
X292.232Y-56.399
X292.232Y-58.939
X292.232Y-61.479
X292.232Y-64.019
X292.232Y-66.559
X292.232Y-69.099
X292.232Y-71.639
X292.232Y-84.339
X292.232Y-99.579
X294.772Y-25.919
X294.772Y-28.459
X294.772Y-30.999
X294.772Y-33.539
X294.772Y-36.079
X294.772Y-38.619
X294.772Y-41.159
X294.772Y-43.699
X294.772Y-46.239
X294.772Y-48.779
X294.772Y-51.319
X294.772Y-53.859
X294.772Y-56.399
X294.772Y-58.939
X294.772Y-61.479
X294.772Y-64.019
X294.772Y-66.559
X294.772Y-91.959
X294.772Y-94.499
X294.772Y-97.039
X294.772Y-99.579
X297.312Y-53.859
X297.312Y-56.399
X297.312Y-58.939
X297.312Y-61.479
X297.312Y-64.019
X297.312Y-66.559
X297.312Y-71.639
X297.312Y-91.959
X297.312Y-94.499
X297.312Y-99.579
X297.312Y-102.119
X297.312Y-104.659
X299.852Y-25.919
X299.852Y-41.159
X299.852Y-43.699
X299.852Y-56.399
X299.852Y-91.959
X299.852Y-94.499
X299.852Y-104.659
X299.852Y-107.199
X300.55Y-76.54
X300.55Y-77.32
X301.305Y-76.54
X301.305Y-77.32
X302.06Y-76.54
X302.06Y-77.32
X302.392Y-43.699
X302.392Y-46.239
X302.392Y-61.479
X302.392Y-64.019
X302.392Y-66.559
X302.392Y-84.339
X302.392Y-86.879
X302.392Y-89.419
X302.392Y-91.959
X302.392Y-94.499
X302.392Y-102.119
X302.392Y-104.659
X302.392Y-107.199
X304.932Y-46.239
X304.932Y-48.779
X304.932Y-66.559
X304.932Y-102.119
X304.932Y-104.659
X304.932Y-107.199
X306.78Y-79.76
X306.78Y-80.54
X307.472Y-48.779
X307.472Y-51.319
X307.472Y-66.559
X307.535Y-79.76
X307.535Y-80.54
X308.29Y-79.76
X308.29Y-80.54
X310.012Y-30.999
X310.012Y-41.159
X310.012Y-48.779
X310.012Y-51.319
X310.012Y-53.859
X310.012Y-56.399
X310.012Y-64.019
X310.012Y-66.559
X312.552Y-25.919
X312.552Y-30.999
X312.552Y-33.539
X312.552Y-41.159
X312.552Y-48.779
X312.552Y-51.319
X312.552Y-53.859
X312.552Y-56.399
X312.552Y-61.479
X312.552Y-64.019
X312.552Y-66.559
X312.552Y-69.099
X312.552Y-71.639
X312.552Y-81.799
X312.552Y-84.339
X312.552Y-86.879
X313.525Y-73.445
X314.265Y-73.435
X315.092Y-25.919
X315.092Y-30.999
X315.092Y-33.539
X315.092Y-41.159
X315.092Y-48.779
X315.092Y-51.319
X315.092Y-53.859
X315.092Y-58.939
X315.092Y-61.479
X315.092Y-64.019
X315.092Y-66.559
X315.092Y-69.099
X315.092Y-71.639
X315.092Y-81.799
X315.092Y-84.339
X315.092Y-86.879
X315.092Y-89.419
X317.632Y-30.999
X317.632Y-33.539
X317.632Y-36.079
X317.632Y-38.619
X317.632Y-41.159
X317.632Y-43.699
X317.632Y-46.239
X317.632Y-48.779
X317.632Y-51.319
X317.632Y-56.399
X317.632Y-58.939
X317.632Y-61.479
X317.632Y-64.019
X317.632Y-66.559
X317.632Y-69.099
X317.632Y-71.639
X317.632Y-89.419
X317.632Y-102.119
X320.172Y-53.859
X320.172Y-56.399
X320.172Y-58.939
X320.172Y-61.479
X320.172Y-64.019
X320.172Y-66.559
X320.172Y-69.099
X320.172Y-81.799
X320.172Y-84.339
X320.172Y-91.959
X320.172Y-94.499
X320.172Y-102.119
X322.712Y-25.919
X322.712Y-28.459
X322.712Y-30.999
X322.712Y-33.539
X322.712Y-36.079
X322.712Y-38.619
X322.712Y-41.159
X322.712Y-43.699
X322.712Y-46.239
X322.712Y-48.779
X322.712Y-51.319
X322.712Y-53.859
X322.712Y-79.259
X325.252Y-30.999
X325.252Y-33.539
X325.252Y-36.079
X325.252Y-38.619
X325.252Y-41.159
X325.252Y-43.699
X325.252Y-46.239
X325.252Y-48.779
X325.252Y-51.319
X325.252Y-58.939
X325.252Y-66.559
X325.252Y-69.099
X325.252Y-76.719
X325.252Y-81.799
X325.252Y-84.339
X325.252Y-91.959
X325.252Y-94.499
X325.252Y-102.119
X327.792Y-33.539
X327.792Y-36.079
X327.792Y-38.619
X327.792Y-41.159
X327.792Y-43.699
X327.792Y-46.239
X327.792Y-56.399
X327.792Y-66.559
X327.792Y-81.799
X327.792Y-84.339
X327.792Y-89.419
X327.792Y-94.499
X327.792Y-97.039
X327.792Y-99.579
X327.792Y-102.119
X327.861Y-92.028
X330.332Y-33.539
X330.332Y-36.079
X330.332Y-38.619
X330.332Y-41.159
X330.332Y-43.699
X330.332Y-46.239
X330.332Y-48.779
X330.332Y-51.319
X330.332Y-56.399
X330.332Y-58.939
X330.332Y-61.479
X330.332Y-66.559
X330.332Y-69.099
X330.332Y-71.639
X330.332Y-76.719
X330.332Y-79.259
X330.332Y-81.799
X330.332Y-84.339
X330.332Y-86.879
X330.332Y-89.419
X330.332Y-91.959
X330.332Y-94.499
X330.332Y-97.039
X330.332Y-99.579
X330.332Y-102.119
T2
X238.83Y-89.96
X240.73Y-89.96
T3
X322.41Y-102.99
X327.41Y-104.457
T4
X228.53Y-87.9
X233.41Y-87.9
X270.22Y-95.73
X270.22Y-98.27
X272.625Y-95.74
X272.625Y-98.28
X275.03Y-95.74
X275.03Y-98.28
X279.712Y-108.647
X279.712Y-116.267
X299.26Y-96.73
X299.26Y-101.73
X308.05Y-106.31
X308.05Y-111.31
T5
X298.37Y-107.825
X298.37Y-111.33
X309.01Y-97.597
X309.01Y-101.102
T6
X252.79Y-101.65
X256.79Y-101.65
T7
X71.92Y-59.61
X82.12Y-59.61
X104.671Y-59.61
X114.871Y-59.61
X137.423Y-59.61
X147.623Y-59.61
X170.174Y-59.61
X180.374Y-59.61
X202.926Y-59.61
X213.126Y-59.61
X216.225Y-84.68
X216.225Y-87.22
X216.225Y-89.76
X216.225Y-92.3
X216.225Y-94.84
X218.765Y-84.68
X218.765Y-87.22
X218.765Y-89.76
X218.765Y-92.3
X218.765Y-94.84
X224.59Y-117.43
X224.59Y-119.97
X227.13Y-117.43
X227.13Y-119.97
X229.67Y-117.43
X229.67Y-119.97
X232.21Y-117.43
X232.21Y-119.97
X234.75Y-117.43
X234.75Y-119.97
X235.677Y-59.61
X245.877Y-59.61
X261.65Y-118.02
X264.19Y-118.02
X266.73Y-118.02
X268.429Y-59.61
X269.27Y-118.02
X278.629Y-59.61
X282.89Y-98.03
X282.89Y-105.65
X285.43Y-98.03
X285.43Y-105.65
X287.97Y-98.03
X287.97Y-105.65
X290.51Y-98.03
X290.51Y-105.65
X301.18Y-59.61
X311.38Y-59.61
T8
X316.695Y-108.52
X326.845Y-108.52
T9
X68.01Y-28.28
X71.82Y-28.28
X75.63Y-28.28
X81.31Y-119.727
X85.12Y-119.727
X98.13Y-119.727
X100.904Y-28.28
X101.94Y-119.727
X104.714Y-28.28
X108.524Y-28.28
X114.95Y-119.727
X118.76Y-119.727
X131.77Y-119.727
X133.797Y-28.28
X135.58Y-119.727
X137.607Y-28.28
X141.417Y-28.28
X148.59Y-119.727
X152.4Y-119.727
X165.41Y-119.727
X166.691Y-28.28
X169.22Y-119.727
X170.501Y-28.28
X174.311Y-28.28
X182.23Y-119.727
X186.04Y-119.727
X199.05Y-119.727
X199.584Y-28.28
X202.86Y-119.727
X203.394Y-28.28
X207.204Y-28.28
X232.478Y-28.28
X236.288Y-28.28
X240.098Y-28.28
X265.371Y-28.28
X269.181Y-28.28
X272.991Y-28.28
X282.55Y-120.04
X286.36Y-120.04
X290.17Y-120.04
X298.265Y-28.28
X302.075Y-28.28
X305.885Y-28.28
T10
X224.57Y-100.19
X246.835Y-87.66
X254.71Y-110.32
X261.35Y-104.33
X327.34Y-70.123
X327.34Y-78.49
X327.37Y-60.31
X327.42Y-50.37
T11
X302.13Y-118.26
X307.21Y-118.26
T12
X68.12Y-46.91
X77.02Y-62.11
X85.92Y-36.81
X85.92Y-44.41
X100.871Y-46.91
X109.771Y-62.11
X118.671Y-36.81
X118.671Y-44.41
X133.623Y-46.91
X142.523Y-62.11
X151.423Y-36.81
X151.423Y-44.41
X166.374Y-46.91
X175.274Y-62.11
X184.174Y-36.81
X184.174Y-44.41
X199.126Y-46.91
X208.026Y-62.11
X216.926Y-36.81
X216.926Y-44.41
X231.877Y-46.91
X240.777Y-62.11
X249.677Y-36.81
X249.677Y-44.41
X264.629Y-46.91
X273.529Y-62.11
X282.429Y-36.81
X282.429Y-44.41
X297.38Y-46.91
X306.28Y-62.11
X315.18Y-36.81
X315.18Y-44.41
T13
X58.36Y-28.01
X58.36Y-118.01
X328.29Y-118.02
X328.36Y-28.01
T7
X315.6Y-114.56G85X318.2Y-114.56
G05
X315.8Y-120.86G85X318.0Y-120.86
G05
X321.7Y-116.36G85X321.7Y-118.56
G05
M30
